<svg width="80" height="80" viewBox="0 0 80 80" fill="none" xmlns="http://www.w3.org/2000/svg">
<g clip-path="url(#clip0_22_334)">
<path d="M21.5167 63.3333L6.66666 75V13.3333C6.66666 12.4493 7.01785 11.6014 7.64297 10.9763C8.2681 10.3512 9.11594 10 10 10H70C70.8841 10 71.7319 10.3512 72.357 10.9763C72.9821 11.6014 73.3333 12.4493 73.3333 13.3333V60C73.3333 60.8841 72.9821 61.7319 72.357 62.357C71.7319 62.9821 70.8841 63.3333 70 63.3333H21.5167ZM19.21 56.6667H66.6667V16.6667H13.3333V61.2833L19.21 56.6667ZM26.6667 33.3333H53.3333V40H26.6667V33.3333Z" fill="#FFFFFF"/>
</g>
<defs>
<clipPath id="clip0_22_334">
<rect width="80" height="80" fill="white"/>
</clipPath>
</defs>
</svg>
